<svg width="36" height="36" viewBox="0 0 36 36" fill="none" xmlns="http://www.w3.org/2000/svg">
<g clip-path="url(#clip0_457_65)">
<path d="M19.9485 4.72217L32.8995 27.1532C33.097 27.4952 33.201 27.8832 33.201 28.2782C33.201 28.6731 33.097 29.0611 32.8995 29.4031C32.7021 29.7452 32.418 30.0292 32.076 30.2267C31.734 30.4242 31.346 30.5282 30.951 30.5282H5.04901C4.65406 30.5282 4.26607 30.4242 3.92403 30.2267C3.582 30.0292 3.29797 29.7452 3.1005 29.4031C2.90303 29.0611 2.79907 28.6731 2.79907 28.2782C2.79907 27.8832 2.90304 27.4952 3.10051 27.1532L16.0515 4.72217C16.917 3.22217 19.0815 3.22217 19.9485 4.72217ZM18 22.5002C17.6022 22.5002 17.2207 22.6582 16.9394 22.9395C16.658 23.2208 16.5 23.6023 16.5 24.0002C16.5 24.398 16.658 24.7795 16.9394 25.0608C17.2207 25.3421 17.6022 25.5002 18 25.5002C18.3978 25.5002 18.7794 25.3421 19.0607 25.0608C19.342 24.7795 19.5 24.398 19.5 24.0002C19.5 23.6023 19.342 23.2208 19.0607 22.9395C18.7794 22.6582 18.3978 22.5002 18 22.5002ZM18 12.0002C17.6326 12.0002 17.278 12.1351 17.0035 12.3792C16.7289 12.6234 16.5535 12.9598 16.5105 13.3247L16.5 13.5002V19.5002C16.5004 19.8825 16.6468 20.2502 16.9093 20.5282C17.1717 20.8062 17.5304 20.9735 17.9121 20.9959C18.2938 21.0183 18.6696 20.8942 18.9628 20.6488C19.2559 20.4034 19.4444 20.0553 19.4895 19.6757L19.5 19.5002V13.5002C19.5 13.1023 19.342 12.7208 19.0607 12.4395C18.7794 12.1582 18.3978 12.0002 18 12.0002Z" fill="#B02304"/>
<path d="M11 8C11 8.15913 10.9431 8.31174 10.8418 8.42426C10.7406 8.53679 10.6032 8.6 10.46 8.6H7.04V12.4C7.04 12.5591 6.98311 12.7117 6.88184 12.8243C6.78057 12.9368 6.64322 13 6.5 13C6.35678 13 6.21943 12.9368 6.11816 12.8243C6.01689 12.7117 5.96 12.5591 5.96 12.4V8.6H2.54C2.39678 8.6 2.25943 8.53679 2.15816 8.42426C2.05689 8.31174 2 8.15913 2 8C2 7.84087 2.05689 7.68826 2.15816 7.57574C2.25943 7.46321 2.39678 7.4 2.54 7.4H5.96V3.6C5.96 3.44087 6.01689 3.28826 6.11816 3.17574C6.21943 3.06321 6.35678 3 6.5 3C6.64322 3 6.78057 3.06321 6.88184 3.17574C6.98311 3.28826 7.04 3.44087 7.04 3.6V7.4H10.46C10.6032 7.4 10.7406 7.46321 10.8418 7.57574C10.9431 7.68826 11 7.84087 11 8Z" fill="#B02304"/>
</g>
<defs>
<clipPath id="clip0_457_65">
<rect width="36" height="36" fill="white"/>
</clipPath>
</defs>
</svg>
