<svg width="40" height="40" viewBox="0 0 40 40" fill="none" xmlns="http://www.w3.org/2000/svg">
<g id="material-symbols:newspaper">
<path id="Vector" d="M6.66665 35C5.74998 35 4.96554 34.6739 4.31331 34.0217C3.66109 33.3694 3.33442 32.5844 3.33331 31.6667V5L6.12498 7.79167L8.87498 5L11.6666 7.79167L14.4583 5L17.2083 7.79167L20 5L22.7916 7.79167L25.5416 5L28.3333 7.79167L31.125 5L33.875 7.79167L36.6666 5V31.6667C36.6666 32.5833 36.3405 33.3683 35.6883 34.0217C35.0361 34.675 34.2511 35.0011 33.3333 35H6.66665ZM6.66665 31.6667H18.3333V21.6667H6.66665V31.6667ZM21.6666 31.6667H33.3333V28.3333H21.6666V31.6667ZM21.6666 25H33.3333V21.6667H21.6666V25ZM6.66665 18.3333H33.3333V13.3333H6.66665V18.3333Z" fill="#1A9DBA"/>
</g>
</svg>
