<svg width="39" height="43" viewBox="0 0 39 43" fill="none" xmlns="http://www.w3.org/2000/svg">
<path d="M33 22.5C33 22.9615 32.8293 23.4041 32.5255 23.7304C32.2217 24.0567 31.8097 24.24 31.38 24.24H21.12V35.26C21.12 35.7215 20.9493 36.1641 20.6455 36.4904C20.3417 36.8167 19.9297 37 19.5 37C19.0703 37 18.6583 36.8167 18.3545 36.4904C18.0507 36.1641 17.88 35.7215 17.88 35.26V24.24H7.62C7.19035 24.24 6.7783 24.0567 6.47449 23.7304C6.17068 23.4041 6 22.9615 6 22.5C6 22.0385 6.17068 21.5959 6.47449 21.2696C6.7783 20.9433 7.19035 20.76 7.62 20.76H17.88V9.74C17.88 9.27852 18.0507 8.83595 18.3545 8.50963C18.6583 8.18332 19.0703 8 19.5 8C19.9297 8 20.3417 8.18332 20.6455 8.50963C20.9493 8.83595 21.12 9.27852 21.12 9.74V20.76H31.38C31.8097 20.76 32.2217 20.9433 32.5255 21.2696C32.8293 21.5959 33 22.0385 33 22.5Z" fill="#6192B1"/>
</svg>
