<svg width="43" height="54" viewBox="0 0 43 54" fill="none" xmlns="http://www.w3.org/2000/svg">
<path fill-rule="evenodd" clip-rule="evenodd" d="M35.9987 36.5067C40.3011 32.6667 43 27.1412 43 21C43 9.40202 33.3741 0 21.5 0C9.62588 0 0 9.40202 0 21C0 27.3787 2.91168 33.0932 7.50769 36.9446L22.0322 54L35.9987 36.5067Z" fill="#B02304"/>
<path d="M13.6305 30.8918C12.9438 30.8918 12.3561 30.6325 11.8675 30.114C11.3789 29.5954 11.1341 28.9713 11.1333 28.2416V16.3158C11.1333 15.8961 11.222 15.4986 11.3993 15.1232C11.5766 14.7477 11.8209 14.4385 12.1322 14.1956L19.6239 8.23268C20.0609 7.87932 20.5603 7.70264 21.1222 7.70264C21.6841 7.70264 22.1835 7.87932 22.6205 8.23268L30.1122 14.1956C30.4243 14.4385 30.6691 14.7477 30.8464 15.1232C31.0237 15.4986 31.1119 15.8961 31.1111 16.3158V28.2416C31.1111 28.9704 30.8663 29.5946 30.3769 30.114C29.8874 30.6334 29.2998 30.8927 28.6139 30.8918H13.6305ZM16.1277 24.9289H26.1166V26.254C26.1166 26.4307 26.1791 26.5853 26.3039 26.7178C26.4288 26.8503 26.5745 26.9165 26.7409 26.9165C26.9074 26.9165 27.0531 26.8503 27.1779 26.7178C27.3028 26.5853 27.3652 26.4307 27.3652 26.254V21.6161C27.3652 20.8873 27.1209 20.2637 26.6323 19.7451C26.1437 19.2266 25.5556 18.9668 24.868 18.966H21.7465C21.3927 18.966 21.0964 19.0932 20.8575 19.3476C20.6186 19.602 20.4987 19.9165 20.4979 20.2911V23.6038H16.1277V18.3034C16.1277 18.1267 16.0653 17.9721 15.9405 17.8396C15.8156 17.7071 15.6699 17.6409 15.5034 17.6409C15.337 17.6409 15.1913 17.7071 15.0664 17.8396C14.9416 17.9721 14.8791 18.1267 14.8791 18.3034V26.254C14.8791 26.4307 14.9416 26.5853 15.0664 26.7178C15.1913 26.8503 15.337 26.9165 15.5034 26.9165C15.6699 26.9165 15.8156 26.8503 15.9405 26.7178C16.0653 26.5853 16.1277 26.4307 16.1277 26.254V24.9289ZM18.3128 22.9412C18.7498 22.9412 19.1194 22.7809 19.4216 22.4602C19.7237 22.1396 19.8744 21.7478 19.8736 21.2849C19.8727 20.822 19.7217 20.4297 19.4203 20.1082C19.119 19.7866 18.7498 19.6267 18.3128 19.6285C17.8758 19.6303 17.5062 19.7906 17.204 20.1095C16.9019 20.4284 16.7512 20.8202 16.752 21.2849C16.7529 21.7495 16.904 22.1418 17.2053 22.4616C17.5066 22.7813 17.8758 22.9412 18.3128 22.9412Z" fill="white"/>
</svg>
