<svg width="24" height="24" viewBox="0 0 24 24" fill="none" xmlns="http://www.w3.org/2000/svg">
<g id="mingcute:arrow-up-fill">
<g id="Group">
<path id="Vector" d="M3.28341 10.94C3.00251 11.2212 2.84473 11.6025 2.84473 12C2.84473 12.3975 3.00251 12.7787 3.28341 13.06L8.93941 18.719C9.2208 19.0004 9.60245 19.1585 10.0004 19.1585C10.3984 19.1585 10.78 19.0004 11.0614 18.719C11.3428 18.4376 11.5009 18.0559 11.5009 17.658C11.5009 17.26 11.3428 16.8784 11.0614 16.597L7.96541 13.5L19.5004 13.5C19.8982 13.5 20.2798 13.342 20.5611 13.0607C20.8424 12.7794 21.0004 12.3978 21.0004 12C21.0004 11.6022 20.8424 11.2206 20.5611 10.9393C20.2798 10.658 19.8982 10.5 19.5004 10.5L7.96541 10.5L11.0614 7.404C11.2007 7.26466 11.3113 7.09925 11.3867 6.91721C11.4621 6.73516 11.5009 6.54004 11.5009 6.343C11.5009 6.14595 11.4621 5.95083 11.3867 5.76879C11.3113 5.58674 11.2007 5.42133 11.0614 5.282C10.9221 5.14266 10.7567 5.03214 10.5746 4.95673C10.3926 4.88133 10.1975 4.84252 10.0004 4.84252C9.80336 4.84252 9.60824 4.88133 9.4262 4.95673C9.24415 5.03214 9.07874 5.14266 8.93941 5.282L3.28341 10.94Z" fill="#02385A"/>
</g>
</g>
</svg>
