<svg width="93" height="43" viewBox="0 0 93 43" fill="none" xmlns="http://www.w3.org/2000/svg">
<g id="Group 326">
<path id="Vector" d="M45.2709 12.2695C44.3133 10.6982 43.0109 9.48143 41.3672 8.62007C39.7231 7.75871 37.8784 7.32669 35.8335 7.32669C33.7887 7.32669 31.8002 7.77697 30.1052 8.67663C28.4097 9.57763 27.089 10.8251 26.1451 12.4223C25.1984 14.0194 24.7275 15.8321 24.7275 17.8599C24.7275 19.8877 25.2189 21.6942 26.2029 23.2775C27.1868 24.8608 28.5721 26.1101 30.3577 27.0213C32.145 27.9344 34.2286 28.3909 36.6101 28.3909C38.5003 28.3909 40.1694 28.1054 41.6197 27.5357C43.07 26.9648 44.2742 26.1479 45.2318 25.0835L42.0082 21.6616C41.3094 22.3199 40.5388 22.8143 39.6986 23.1443C38.8565 23.4743 37.8925 23.6373 36.8053 23.6373C35.5356 23.6373 34.4488 23.416 33.5426 22.9733C32.6364 22.5288 31.9235 21.8892 31.4076 21.0524C31.1224 20.5914 30.9149 20.0841 30.7866 19.5314H46.5906C46.617 19.278 46.6439 19.0063 46.6684 18.7146C46.6948 18.4229 46.7075 18.1632 46.7075 17.9343C46.7075 15.7292 46.2285 13.8421 45.2709 12.2695ZM30.7134 16.0717C30.813 15.4348 31.005 14.8576 31.2907 14.3418C31.7306 13.5433 32.3452 12.9233 33.1359 12.4788C33.9251 12.0361 34.8373 11.8148 35.8731 11.8148C36.909 11.8148 37.8147 12.0361 38.5917 12.4788C39.3683 12.9233 39.9765 13.5384 40.4164 14.3231C40.708 14.8456 40.8982 15.4272 40.9842 16.0717H30.7139H30.7134Z" fill="#6192B1"/>
<path id="Vector_2" d="M91.1221 12.2695C90.2031 10.6982 88.9563 9.48143 87.3813 8.62007C85.8058 7.75871 84.038 7.32669 82.0785 7.32669C80.1189 7.32669 78.2134 7.77697 76.5891 8.67663C74.9644 9.57763 73.6984 10.8251 72.793 12.4223C71.8871 14.0194 71.4346 15.8321 71.4346 17.8599C71.4346 19.8877 71.9067 21.6942 72.8501 23.2775C73.7917 24.8608 75.1204 26.1101 76.8315 27.0213C78.543 27.9344 80.5396 28.3909 82.8231 28.3909C84.6331 28.3909 86.2339 28.1054 87.6236 27.5357C89.0121 26.9648 90.166 26.1479 91.085 25.0835L87.9959 21.6616C87.3263 22.3199 86.5878 22.8143 85.7809 23.1443C84.9753 23.4743 84.0515 23.6373 83.0083 23.6373C81.7934 23.6373 80.7515 23.416 79.8831 22.9733C79.0147 22.5288 78.3316 21.8892 77.8355 21.0524C77.5621 20.5914 77.3647 20.0841 77.2422 19.5314H92.3867C92.412 19.278 92.436 19.0063 92.4613 18.7146C92.4852 18.4229 92.4987 18.1632 92.4987 17.9343C92.4987 15.7292 92.0397 13.8421 91.1221 12.2695ZM77.1702 16.0717C77.2674 15.4348 77.4514 14.8576 77.7247 14.3418C78.1463 13.5433 78.7353 12.9233 79.4912 12.4788C80.2488 12.0361 81.1233 11.8148 82.1155 11.8148C83.1077 11.8148 83.9761 12.0361 84.7207 12.4788C85.4649 12.9233 86.0477 13.5384 86.4693 14.3231C86.7487 14.8456 86.9296 15.4272 87.0133 16.0717H77.1702Z" fill="#6192B1"/>
<g id="Group">
<path id="Vector_3" d="M36.9863 42.8634V30.925H42.1545C43.2232 30.925 44.144 31.0986 44.9173 31.4451C45.6902 31.7919 46.2872 32.2894 46.7083 32.9374C47.1289 33.5854 47.3395 34.3529 47.3395 35.2399C47.3395 36.1269 47.1289 36.9086 46.7083 37.5509C46.2876 38.1936 45.6906 38.6826 44.9173 39.0175C44.144 39.3528 43.2227 39.5207 42.1545 39.5207H38.5046L39.7665 38.3268V42.8634H36.9863ZM39.7665 38.6337L38.5046 37.3203H42.0012C42.8425 37.3203 43.479 37.1387 43.9117 36.7745C44.3439 36.4107 44.5597 35.899 44.5597 35.2395C44.5597 34.5799 44.3439 34.0714 43.9117 33.7129C43.4795 33.3549 42.8425 33.1755 42.0012 33.1755H38.5046L39.7665 31.8621V38.6328V38.6337ZM44.593 42.8634L41.5912 38.5316H44.5588L47.5607 42.8634H44.593Z" fill="#F4F4F4"/>
<path id="Vector_4" d="M53.8882 42.9998C52.8421 42.9998 51.9266 42.7951 51.1422 42.386C50.3577 41.9765 49.7492 41.4169 49.317 40.7062C48.8848 39.9956 48.6689 39.1859 48.6689 38.2758C48.6689 37.3657 48.8764 36.5534 49.2917 35.837C49.7066 35.1205 50.2867 34.5609 51.0316 34.1572C51.776 33.7539 52.6147 33.5518 53.5475 33.5518C54.4803 33.5518 55.2558 33.7454 55.978 34.1314C56.6999 34.5183 57.2715 35.0637 57.6922 35.7686C58.1128 36.4734 58.3234 37.3204 58.3234 38.3096C58.3234 38.4117 58.3176 38.5285 58.3065 38.6591C58.2949 38.7901 58.2834 38.9123 58.2723 39.0256H50.8188V37.4737H56.8735L55.8332 37.9343C55.8443 37.4568 55.7537 37.042 55.5605 36.6893C55.3668 36.3371 55.0999 36.0613 54.7588 35.8623C54.4176 35.6633 54.0196 35.5638 53.5648 35.5638C53.1099 35.5638 52.7093 35.6633 52.3624 35.8623C52.0155 36.0613 51.7454 36.3397 51.5522 36.6982C51.3585 37.0562 51.2621 37.4799 51.2621 37.9689V38.3784C51.2621 38.8901 51.3754 39.3334 51.6032 39.7087C51.8307 40.084 52.1434 40.3713 52.5414 40.5699C52.9394 40.7689 53.4169 40.8683 53.9739 40.8683C54.4514 40.8683 54.8751 40.7946 55.2447 40.6467C55.6138 40.4993 55.9523 40.2776 56.2597 39.9814L57.6753 41.5164C57.2546 41.9938 56.7256 42.3607 56.0891 42.6165C55.4521 42.8724 54.7188 43.0003 53.889 43.0003L53.8882 42.9998Z" fill="#F4F4F4"/>
<path id="Vector_5" d="M64.5314 42.9998C63.5422 42.9998 62.6635 42.7982 61.896 42.3945C61.1284 41.9912 60.5257 41.4306 60.0882 40.7147C59.6502 39.9982 59.4316 39.1854 59.4316 38.2758C59.4316 37.3662 59.6506 36.5423 60.0882 35.837C60.5257 35.1321 61.1284 34.5751 61.896 34.1656C62.6635 33.7561 63.5417 33.5518 64.5314 33.5518C65.521 33.5518 66.3419 33.7539 67.0641 34.1572C67.7859 34.5609 68.3061 35.1321 68.6246 35.8712L66.5777 36.9967C66.3277 36.5645 66.0261 36.2491 65.6738 36.0502C65.3211 35.8516 64.9347 35.7517 64.514 35.7517C64.0707 35.7517 63.667 35.8512 63.3032 36.0502C62.9389 36.2491 62.6493 36.5361 62.4335 36.9114C62.2171 37.2867 62.1092 37.7415 62.1092 38.2758C62.1092 38.8101 62.2171 39.2681 62.4335 39.6487C62.6493 40.0298 62.9394 40.3198 63.3032 40.5184C63.667 40.7173 64.0707 40.8168 64.514 40.8168C64.9347 40.8168 65.3211 40.7173 65.6738 40.5184C66.0261 40.3194 66.3277 39.9982 66.5777 39.5545L68.6246 40.68C68.3061 41.408 67.7859 41.9761 67.0641 42.3856C66.3419 42.7951 65.4975 42.9994 64.5314 42.9994V42.9998Z" fill="#F4F4F4"/>
<path id="Vector_6" d="M71.4381 32.4087C70.9375 32.4087 70.5342 32.2666 70.2272 31.9823C69.9203 31.6985 69.7666 31.3458 69.7666 30.9248C69.7666 30.5037 69.9203 30.152 70.2272 29.8672C70.5342 29.5834 70.9379 29.4409 71.4381 29.4409C71.9382 29.4409 72.3278 29.5745 72.6405 29.8415C72.9532 30.1089 73.1096 30.4526 73.1096 30.8733C73.1096 31.3165 72.9559 31.6834 72.6489 31.9734C72.342 32.2635 71.9382 32.4083 71.4381 32.4083V32.4087ZM70.1077 42.8632V33.6879H72.7684V42.8632H70.1077Z" fill="#F4F4F4"/>
<path id="Vector_7" d="M74.1504 35.939V33.8923H80.512V35.939H74.1504ZM75.566 42.8634V33.4833C75.566 32.4373 75.8729 31.6072 76.4873 30.9933C77.1016 30.3795 77.9766 30.0726 79.1137 30.0726C79.4891 30.0726 79.8582 30.1126 80.2224 30.1921C80.5862 30.2716 80.8932 30.3911 81.1432 30.5501L80.4441 32.4941C80.2962 32.392 80.1314 32.3125 79.9493 32.2552C79.7671 32.1983 79.5739 32.1699 79.3692 32.1699C78.9827 32.1699 78.6842 32.2783 78.4737 32.4941C78.2631 32.7104 78.1583 33.0515 78.1583 33.5175V34.3702L78.2436 35.4957V42.8634H75.566Z" fill="#F4F4F4"/>
<path id="Vector_8" d="M86.2778 42.9998C85.2317 42.9998 84.3163 42.7951 83.5318 42.386C82.7474 41.9765 82.1389 41.4169 81.7067 40.7062C81.2745 39.9956 81.0586 39.1859 81.0586 38.2758C81.0586 37.3657 81.266 36.5534 81.6813 35.837C82.0962 35.1205 82.6763 34.5609 83.4212 34.1572C84.1657 33.7539 85.0043 33.5518 85.9371 33.5518C86.8699 33.5518 87.6455 33.7454 88.3677 34.1314C89.0895 34.5183 89.6612 35.0637 90.0818 35.7686C90.5025 36.4734 90.713 37.3204 90.713 38.3096C90.713 38.4117 90.7072 38.5285 90.6961 38.6591C90.6846 38.7901 90.673 38.9123 90.6619 39.0256H83.2085V37.4737H89.2632L88.2229 37.9343C88.234 37.4568 88.1434 37.042 87.9502 36.6893C87.7565 36.3371 87.4895 36.0613 87.1484 35.8623C86.8073 35.6633 86.4093 35.5638 85.9544 35.5638C85.4996 35.5638 85.0989 35.6633 84.752 35.8623C84.4051 36.0613 84.135 36.3397 83.9418 36.6982C83.7482 37.0562 83.6518 37.4799 83.6518 37.9689V38.3784C83.6518 38.8901 83.765 39.3334 83.9929 39.7087C84.2203 40.084 84.533 40.3713 84.931 40.5699C85.329 40.7689 85.8065 40.8683 86.3635 40.8683C86.841 40.8683 87.2648 40.7946 87.6343 40.6467C88.0035 40.4993 88.3419 40.2776 88.6493 39.9814L90.0649 41.5164C89.6443 41.9938 89.1153 42.3607 88.4788 42.6165C87.8418 42.8724 87.1084 43.0003 86.2787 43.0003L86.2778 42.9998Z" fill="#F4F4F4"/>
</g>
<path id="Vector_9" d="M62.8259 0V9.84837C62.3598 9.33443 61.8347 8.90296 61.2475 8.55441C59.9693 7.79746 58.4785 7.41876 56.7765 7.41876C54.8719 7.41876 53.1562 7.85511 51.6293 8.7247C50.1006 9.59561 48.8981 10.8137 48.0213 12.3778C47.1445 13.9436 46.707 15.7847 46.707 17.9057C46.707 20.0267 47.1445 21.8674 48.0213 23.4318C48.8981 24.9963 50.1006 26.214 51.6293 27.0849C53.1566 27.9563 54.8723 28.3908 56.7765 28.3908C58.5542 28.3908 60.0767 28.0184 61.3413 27.2734C62.0051 26.884 62.5861 26.3794 63.0887 25.7621V28.088H68.687V0H62.8259ZM59.277 13.2571C59.2906 13.2952 59.2981 13.3329 59.31 13.3804H57.0674V10.3277C57.1532 10.3659 57.2395 10.3947 57.3178 10.4373C57.813 10.7078 58.1735 11.1321 58.4843 11.6079C58.8179 12.1201 59.0697 12.6784 59.2765 13.2575L59.277 13.2571ZM59.0912 10.6754C60.4993 11.2013 61.6415 12.1028 62.568 13.3768H60.3769C60.0706 12.4159 59.6784 11.498 59.0912 10.6754ZM59.6256 14.4429C59.876 15.4708 59.9966 16.5133 60.0314 17.5807H57.0678V14.4429H59.6256ZM60.0314 18.6569C59.9984 19.718 59.876 20.7592 59.6269 21.7902H57.063V18.6569H60.0314ZM59.2902 22.8651C59.2224 23.8398 57.905 25.6504 57.0599 25.9009V22.8651H59.2902ZM60.3496 22.9458C60.3633 22.9046 60.4328 22.8545 60.4764 22.8545C61.1617 22.8483 61.8453 22.8514 62.5724 22.8514C61.649 24.1285 60.505 25.0282 59.0956 25.5577C59.6555 24.7595 60.0494 23.8793 60.3496 22.9458ZM60.7044 21.7995C60.8298 20.7428 60.9535 19.7047 61.0772 18.6542H64.0333C64.0047 19.2746 63.9065 19.8706 63.7225 20.4466C63.5883 20.8648 63.4175 21.2705 63.2546 21.678C63.2348 21.7299 63.1657 21.7938 63.1186 21.7938C62.307 21.8013 61.4949 21.8 60.7044 21.8V21.7995ZM61.0772 17.5838C60.9535 16.5346 60.8298 15.492 60.7062 14.4367H60.8554C61.5856 14.4367 62.3145 14.4398 63.0434 14.4353C63.1565 14.434 63.2186 14.4641 63.2727 14.5781C63.712 15.5209 63.9699 16.5133 64.0364 17.5838H61.0772ZM52.3943 14.438C52.4035 14.438 52.411 14.4411 52.4154 14.4442C52.4154 14.4442 52.4123 14.4442 52.4092 14.4429C52.2856 15.4889 52.1619 16.5288 52.0364 17.5824H49.0531C49.1226 17.1385 49.1767 16.7066 49.263 16.2827C49.3854 15.6823 49.5892 15.1089 49.8577 14.5635C49.8832 14.5089 49.9558 14.4433 50.0069 14.4433C50.8036 14.4358 51.5989 14.4389 52.3943 14.4389V14.438ZM50.5443 13.3848C51.4664 12.1046 52.6117 11.2093 54.0198 10.6785C53.5382 11.3658 53.1777 12.1152 52.8956 12.9103C52.8864 12.9378 52.8776 12.9649 52.867 12.9924C52.7775 13.254 52.6025 13.3848 52.3419 13.3848H50.5447H50.5443ZM49.0922 18.6556H52.0377C52.1614 19.7016 52.2838 20.7415 52.4088 21.7995H50.8603C50.5826 21.7995 50.3066 21.804 50.0302 21.7951C49.9774 21.7938 49.8973 21.757 49.8748 21.7113C49.4175 20.7659 49.1459 19.7637 49.0843 18.6995C49.0843 18.6888 49.0887 18.6768 49.0918 18.6556H49.0922ZM52.6386 22.8483C52.7486 22.847 52.7592 22.9183 52.7834 22.9959C53.0431 23.7924 53.3688 24.5542 53.8274 25.2473C53.8921 25.3475 53.9617 25.4451 54.0176 25.5573C52.6143 25.0313 51.4704 24.1312 50.5421 22.8509C51.2692 22.8509 51.9532 22.8523 52.6381 22.8478L52.6386 22.8483ZM53.8111 22.8984C53.8081 22.8891 53.8142 22.8758 53.8155 22.8572H56.0458V25.9054C55.673 25.779 55.3759 25.5404 55.1131 25.2548C54.4991 24.5812 54.114 23.7649 53.8107 22.8984H53.8111ZM53.4881 21.7916C53.2389 20.7623 53.117 19.7194 53.0836 18.6538H56.0489V21.7916H53.4881ZM53.0836 17.5838C53.1139 16.5213 53.2407 15.4796 53.4863 14.446H56.0515V17.5838H53.0831H53.0836ZM53.8142 13.3711C54.2337 11.9694 55.1857 10.557 56.0537 10.3441V13.3711H53.8142Z" fill="#6192B1"/>
<path id="Vector_10" d="M25.0785 26.3358C24.4101 25.2683 23.2849 24.6425 22.1002 24.5493L18.5776 19.5832C18.5897 19.5789 18.6023 19.5727 18.6144 19.5684C20.3496 18.8327 21.6882 17.7608 22.6318 16.3526C23.5754 14.9461 24.0488 13.2572 24.0488 11.2876C24.0488 9.31798 23.5754 7.66191 22.6318 6.24186C21.6882 4.82181 20.3496 3.73192 18.6144 2.97088C16.8791 2.21116 14.8121 1.83151 12.4148 1.83151H0.818816V25.979C-0.143179 27.177 -0.295592 28.8808 0.565093 30.2557C1.67323 32.027 4.04145 32.584 5.85338 31.502C7.6653 30.4195 8.23685 28.1075 7.12916 26.3363C7.1063 26.2986 7.08165 26.2614 7.05699 26.225V20.6705H12.4143C12.5049 20.6705 12.5959 20.6705 12.6864 20.6674L17.8873 27.998H17.9612C17.898 28.7621 18.0733 29.5516 18.5144 30.2557C19.6225 32.027 21.9894 32.584 23.8027 31.502C25.6146 30.4195 26.1862 28.1075 25.0785 26.3363V26.3358ZM16.3564 14.6518C15.3868 15.4505 13.9573 15.8481 12.07 15.8481H7.05699V6.76425H12.07C13.9573 6.76425 15.3864 7.15747 16.3564 7.94259C17.326 8.72772 17.8102 9.843 17.8102 11.2871C17.8102 12.7313 17.326 13.8544 16.3564 14.6514V14.6518Z" fill="#6192B1"/>
</g>
</svg>
