<?xml version="1.0" standalone="no"?>
<!DOCTYPE svg PUBLIC "-//W3C//DTD SVG 20010904//EN"
 "http://www.w3.org/TR/2001/REC-SVG-20010904/DTD/svg10.dtd">
<svg version="1.0" xmlns="http://www.w3.org/2000/svg"
 width="2864.000000pt" height="874.000000pt" viewBox="0 0 2864.000000 874.000000"
 preserveAspectRatio="xMidYMid meet">

<g transform="translate(0.000000,874.000000) scale(0.100000,-0.100000)"
fill="rgba(18,92,170,1)" stroke="none">
<path d="M1750 8719 c-498 -64 -958 -313 -1276 -692 -235 -280 -378 -588 -446
-963 l-23 -129 0 -2555 c0 -2795 -3 -2637 60 -2886 91 -357 259 -650 524 -914
298 -297 656 -483 1071 -556 102 -18 455 -19 12670 -19 l12565 0 112 23 c316
64 581 180 825 362 429 319 696 768 785 1316 17 102 18 271 18 2659 0 2812 4
2612 -60 2866 -106 416 -345 791 -674 1056 -301 241 -642 386 -1021 433 -103
12 -25030 12 -25130 -1z m25048 -440 c366 -39 670 -186 933 -448 267 -267 414
-578 449 -946 14 -152 14 -4888 0 -5040 -35 -368 -182 -679 -449 -946 -272
-271 -580 -415 -962 -449 -160 -14 -24810 -14 -24934 0 -398 46 -754 231
-1008 525 -173 200 -287 431 -349 707 l-23 103 0 2580 c0 2486 1 2583 19 2670
45 214 137 428 259 602 131 186 362 385 566 487 150 76 355 136 521 155 116
13 24859 13 24978 0z"/>
<path d="M5422 7493 c-18 -4 -23 -10 -20 -31 3 -26 1 -27 -49 -30 -51 -3 -53
-2 -53 22 0 22 -5 26 -27 26 -55 0 -73 -10 -73 -41 0 -25 -4 -29 -27 -29 -16
0 -38 -3 -50 -6 -20 -5 -23 -2 -23 21 0 27 -1 27 -45 22 -26 -2 -48 -7 -50 -9
-3 -2 0 -33 6 -67 l11 -63 32 6 c70 14 340 46 392 46 l55 0 -3 68 c-3 64 -4
67 -28 68 -14 1 -35 0 -48 -3z"/>
<path d="M5890 7483 c0 -10 -3 -42 -6 -70 l-7 -53 52 0 c66 0 220 -17 335 -36
68 -12 91 -12 96 -3 10 15 23 110 16 116 -3 3 -24 9 -46 13 -40 7 -41 7 -47
-22 -5 -24 -10 -29 -27 -24 -12 3 -33 6 -48 6 -24 0 -28 4 -28 29 0 31 -18 41
-72 41 -23 0 -28 -4 -28 -25 0 -23 -3 -25 -50 -25 -48 0 -50 1 -50 29 0 24 -5
29 -31 35 -49 9 -59 7 -59 -11z"/>
<path d="M4558 7333 c-45 -13 -47 -15 -37 -40 11 -31 15 -26 -43 -46 l-48 -16
-6 25 c-7 28 -15 29 -72 7 -39 -15 -42 -19 -37 -43 5 -25 2 -29 -37 -44 -40
-17 -43 -17 -55 0 -7 10 -13 21 -13 26 0 6 -88 -26 -98 -36 -1 -2 9 -30 24
-64 l26 -60 88 39 c49 21 158 61 242 90 84 28 154 52 156 54 6 5 -30 125 -37
124 -3 -1 -27 -8 -53 -16z"/>
<path d="M6747 7289 c-10 -34 -17 -63 -15 -64 2 -1 71 -25 153 -53 83 -27 192
-68 243 -90 l93 -40 25 55 c13 31 24 59 24 64 0 12 -94 52 -98 41 -1 -5 -8
-17 -15 -26 -11 -15 -15 -15 -54 0 -46 18 -49 24 -33 55 6 10 8 19 6 19 -3 0
-28 9 -56 20 l-51 20 -9 -25 c-11 -29 -10 -29 -62 -13 -35 10 -39 14 -36 41 3
27 -1 31 -42 43 -25 8 -47 14 -50 14 -3 0 -13 -28 -23 -61z"/>
<path d="M11247 7300 c-14 -11 -31 -38 -37 -58 -14 -51 -14 -4092 0 -4143 6
-20 20 -45 31 -55 20 -18 45 -19 462 -22 320 -2 449 1 470 9 58 24 57 18 57
446 0 215 4 394 8 397 4 2 113 6 240 7 l233 2 105 -164 c176 -274 277 -393
418 -493 191 -137 479 -206 858 -206 94 0 99 1 130 29 l33 29 3 429 c2 414 2
429 -18 461 -25 41 -54 52 -138 52 -86 1 -207 23 -263 48 -50 22 -104 72 -149
137 l-32 46 29 22 c180 140 359 365 463 581 108 225 157 426 167 681 19 494
-139 907 -478 1256 -260 266 -559 427 -930 501 -111 22 -134 22 -875 26 -759
3 -760 3 -787 -18z m1553 -1039 c306 -107 490 -355 490 -661 0 -314 -190 -561
-510 -662 -70 -21 -92 -23 -310 -23 l-235 0 -3 688 -2 689 252 -4 c231 -4 259
-7 318 -27z"/>
<path d="M14669 7291 l-29 -29 0 -2087 c0 -1412 3 -2093 10 -2106 28 -51 -18
-49 1207 -49 1264 0 1169 -5 1199 66 20 48 21 819 1 867 -28 66 16 62 -721 67
l-671 5 0 315 0 315 630 5 c347 3 638 9 648 14 45 22 47 41 47 471 0 430 -2
449 -47 471 -10 5 -301 11 -648 14 l-630 5 -3 343 -2 342 655 0 c731 0 713 -2
741 65 12 30 14 101 12 456 l-3 421 -33 29 -32 29 -1151 0 -1151 0 -29 -29z"/>
<path d="M19075 7314 c-216 -25 -336 -47 -473 -88 -641 -193 -1153 -686 -1361
-1311 -81 -243 -111 -441 -111 -735 0 -386 63 -683 210 -985 263 -543 754
-942 1347 -1095 231 -60 350 -72 779 -77 l391 -5 34 30 34 30 0 441 0 441 -28
27 -27 28 -363 6 c-396 6 -451 13 -615 71 -162 57 -263 119 -385 237 -223 216
-331 464 -344 796 -11 269 47 497 177 693 168 254 392 408 700 478 60 13 149
18 448 23 l374 6 29 33 29 32 0 436 0 436 -29 29 -29 29 -379 -1 c-208 -1
-391 -4 -408 -5z"/>
<path d="M20263 7296 l-28 -24 -5 -2079 c-5 -2268 -9 -2131 50 -2160 19 -10
128 -12 471 -11 423 3 448 4 468 22 11 10 25 33 29 50 5 17 6 962 4 2101 l-5
2069 -27 28 -28 28 -451 0 -450 0 -28 -24z"/>
<path d="M21791 7292 l-28 -27 -6 -2075 c-5 -1928 -4 -2077 11 -2110 30 -61
23 -60 513 -58 423 3 448 4 468 22 11 10 25 35 31 55 6 23 10 311 10 781 0
410 0 753 0 763 0 16 37 17 626 17 l626 0 34 34 34 34 0 416 0 416 -29 32 -29
33 -634 5 -633 5 -3 343 -2 342 653 0 c441 0 664 4 685 11 63 22 62 14 62 494
l0 437 -29 29 -29 29 -1152 0 -1152 0 -27 -28z"/>
<path d="M24528 7291 l-33 -29 -3 -2074 c-2 -1543 1 -2080 9 -2101 7 -15 23
-37 37 -47 24 -20 46 -20 1166 -20 892 0 1146 3 1166 13 14 7 33 28 42 47 16
32 18 74 18 440 0 366 -2 408 -18 440 -9 19 -28 40 -42 47 -19 10 -178 13
-687 13 l-663 0 0 320 0 320 631 0 631 0 34 34 34 34 0 416 0 416 -29 32 -29
33 -634 5 -633 5 -3 343 -2 342 656 0 c728 0 707 -2 738 65 14 28 16 82 15
367 0 183 -4 375 -7 426 -7 86 -9 96 -35 118 l-28 24 -1149 0 -1150 0 -32 -29z"/>
<path d="M5246 7295 c-151 -19 -156 -20 -156 -51 0 -26 1 -26 48 -21 26 4 101
11 167 18 148 14 145 13 145 44 0 23 -3 25 -47 24 -27 -1 -97 -7 -157 -14z"/>
<path d="M5930 7287 c0 -31 -1 -31 160 -47 63 -6 133 -14 156 -17 38 -5 42 -4
46 21 4 21 1 27 -16 31 -48 10 -167 25 -253 31 l-93 7 0 -26z"/>
<path d="M5546 7213 l-29 -5 7 -141 c4 -78 9 -172 13 -209 l6 -68 148 0 c82 0
149 1 150 3 4 9 26 413 22 416 -5 7 -282 10 -317 4z"/>
<path d="M5342 7200 c-40 -5 -110 -13 -155 -20 l-83 -11 36 -204 c19 -112 37
-206 40 -209 3 -2 53 2 110 9 58 8 125 15 149 15 l43 0 -6 53 c-3 28 -8 117
-11 197 -7 166 -10 181 -33 179 -9 -1 -50 -5 -90 -9z"/>
<path d="M5929 7193 c0 -10 -6 -107 -12 -216 l-12 -197 40 0 c22 0 89 -7 149
-15 61 -8 111 -13 112 -12 3 4 72 412 70 415 -4 3 -198 29 -278 36 -61 6 -68
5 -69 -11z"/>
<path d="M4450 7106 c-214 -79 -209 -76 -196 -108 l11 -26 84 34 c47 19 129
48 183 66 71 23 97 36 93 46 -3 8 -5 20 -5 28 0 21 -12 18 -170 -40z"/>
<path d="M4890 7124 c-198 -45 -192 -43 -184 -66 3 -10 29 -100 58 -199 29
-99 55 -181 57 -183 2 -3 60 9 129 25 69 16 134 32 146 34 20 4 20 5 -14 207
-19 112 -37 206 -41 209 -3 4 -71 -8 -151 -27z"/>
<path d="M6335 7137 c-16 -75 -66 -389 -62 -393 5 -5 248 -64 277 -67 10 -2
30 51 73 197 32 109 56 201 53 203 -5 5 -240 64 -303 76 -28 6 -33 3 -38 -16z"/>
<path d="M6766 7153 c-3 -3 -6 -16 -6 -28 0 -18 14 -25 88 -49 48 -16 128 -45
179 -66 l91 -37 11 24 c6 13 11 26 11 27 0 8 -285 116 -341 129 -14 4 -29 4
-33 0z"/>
<path d="M4505 7016 c-165 -60 -220 -82 -219 -90 1 -4 37 -92 80 -197 59 -143
83 -189 94 -185 26 8 295 108 298 111 7 6 -114 399 -123 401 -5 2 -64 -17
-130 -40z"/>
<path d="M6716 6978 c-13 -46 -38 -131 -55 -190 -18 -59 -34 -114 -37 -122 -4
-11 5 -18 33 -25 21 -6 92 -31 157 -56 66 -25 121 -43 123 -41 4 4 163 378
163 384 0 7 -334 132 -356 132 -1 0 -14 -37 -28 -82z"/>
<path d="M8473 6950 c-28 -11 -43 -40 -43 -81 0 -28 -3 -31 -22 -25 -13 3 -52
9 -88 12 -36 3 -94 12 -129 21 -69 16 -124 12 -171 -12 -63 -32 -80 -153 -34
-233 38 -64 44 -96 33 -160 -15 -88 -14 -87 -61 -54 -24 16 -52 39 -62 51 -28
31 -59 26 -95 -14 -40 -46 -56 -106 -44 -166 9 -45 8 -47 -33 -92 -26 -29 -53
-75 -70 -119 -16 -40 -38 -87 -51 -104 -32 -43 -46 -123 -31 -182 6 -26 12
-110 14 -187 3 -202 16 -297 48 -346 29 -43 75 -76 118 -85 l27 -6 -62 -118
-62 -119 -64 -7 c-61 -6 -211 0 -272 13 l-29 6 0 213 0 214 -90 0 c-87 0 -90
1 -80 19 17 33 12 181 -9 226 -23 51 -79 101 -128 114 -50 14 -197 14 -248 0
-52 -15 -119 -82 -134 -134 -14 -50 -14 -192 -1 -200 6 -3 10 -10 10 -16 0 -5
-352 -9 -920 -9 l-921 0 12 21 c6 13 9 59 7 118 -3 87 -6 102 -31 138 -45 65
-95 87 -212 91 -131 5 -178 -8 -232 -63 -31 -32 -44 -57 -53 -97 -12 -54 -10
-159 4 -190 7 -16 3 -18 -32 -18 l-40 0 -7 63 c-11 98 -62 286 -96 355 -22 46
-57 89 -124 155 -51 51 -115 121 -143 156 l-50 65 27 40 c23 35 26 50 26 121
0 61 -4 88 -18 108 -23 35 -49 34 -131 -4 l-66 -31 -63 16 c-35 9 -88 16 -119
16 -49 0 -56 3 -62 23 -15 55 -6 110 26 166 56 98 40 205 -37 247 -24 13 -47
15 -101 11 -98 -8 -233 -26 -272 -37 -33 -9 -34 -8 -28 16 7 28 -15 79 -39 88
-55 21 -111 -7 -121 -60 -4 -23 0 -37 20 -61 l25 -30 -41 -19 c-23 -10 -60
-32 -82 -48 -23 -17 -62 -40 -87 -52 -178 -84 -180 -239 -5 -319 39 -18 78
-41 87 -51 18 -21 69 -113 69 -123 0 -4 -25 -29 -55 -55 -44 -38 -71 -52 -129
-68 -125 -34 -176 -97 -160 -200 9 -55 59 -108 102 -108 l30 0 -15 -47 c-9
-31 -18 -120 -23 -248 -8 -204 -16 -247 -61 -337 -10 -20 -30 -76 -45 -125
-35 -117 -44 -324 -21 -458 l16 -90 -39 -73 c-93 -172 -188 -266 -435 -430
-206 -136 -335 -251 -371 -330 -17 -37 -22 -41 -44 -37 -38 9 -93 57 -115 101
-27 54 -25 158 4 246 41 123 105 206 330 428 115 113 233 234 262 270 123 147
179 278 186 435 13 255 -88 407 -287 430 -68 8 -184 -15 -257 -51 -115 -56
-230 -192 -288 -340 -37 -94 -50 -112 -109 -155 l-39 -29 37 0 c86 0 137 46
199 180 80 174 91 194 128 231 50 50 125 87 213 106 217 45 356 -84 356 -331
0 -99 -19 -178 -65 -271 -54 -110 -125 -195 -334 -400 -273 -268 -342 -360
-387 -511 -24 -82 -23 -196 3 -254 25 -57 73 -104 129 -127 34 -14 42 -22 39
-38 -2 -11 -7 -37 -10 -58 l-6 -38 -62 33 c-225 120 -288 348 -163 595 59 118
122 191 401 468 269 268 320 328 373 443 51 112 39 296 -24 372 -50 58 -107
74 -219 60 -152 -19 -221 -81 -320 -286 -91 -189 -143 -239 -263 -251 -51 -6
-53 -7 -31 -19 44 -22 146 -44 209 -44 94 0 138 17 197 76 44 43 55 63 73 125
78 266 96 303 163 338 l48 24 47 -19 c36 -15 53 -30 72 -64 22 -39 25 -57 25
-140 0 -88 -2 -100 -36 -170 -52 -108 -129 -198 -373 -433 -241 -233 -326
-332 -385 -451 -51 -100 -71 -179 -71 -271 0 -176 99 -324 271 -408 l65 -32
13 -125 c37 -353 39 -345 -144 -525 -73 -71 -137 -140 -144 -152 -17 -33 -13
-165 9 -298 13 -77 20 -170 20 -260 1 -164 13 -272 37 -322 24 -51 108 -134
189 -186 167 -107 334 -140 490 -98 147 41 194 84 194 181 0 116 -38 151 -230
214 -221 73 -278 110 -305 199 -18 60 -20 184 -4 273 l11 63 196 102 c109 56
218 117 244 136 80 58 180 174 227 264 24 46 45 86 47 87 1 2 49 -20 105 -49
131 -67 222 -150 270 -246 l34 -68 1 -175 c0 -238 6 -250 174 -374 54 -40 116
-104 225 -233 121 -142 158 -180 187 -190 116 -38 527 -63 562 -34 26 22 19
65 -24 148 -59 114 -126 177 -340 317 -218 144 -284 202 -330 287 -48 90 -50
163 -12 344 40 187 45 239 32 320 -14 90 -58 180 -120 248 l-50 55 72 21 c202
59 366 127 445 184 42 30 42 30 70 12 52 -35 118 -112 150 -176 31 -63 38 -92
68 -283 24 -153 67 -228 159 -277 l45 -23 4 -511 c3 -348 8 -524 16 -553 33
-123 107 -213 207 -253 l59 -24 1280 -3 c930 -2 1296 0 1340 8 152 30 246 126
281 289 11 51 14 174 14 557 l0 490 34 16 c103 49 150 130 172 291 25 183 52
297 89 375 38 81 109 176 156 211 31 23 31 23 52 3 44 -40 165 -111 298 -174
127 -61 239 -126 239 -138 0 -3 -21 -29 -47 -57 -60 -64 -107 -142 -134 -219
-28 -80 -22 -232 16 -394 50 -214 28 -318 -90 -435 -62 -60 -97 -86 -319 -230
-148 -97 -219 -167 -269 -265 -48 -96 -55 -131 -31 -155 17 -16 34 -17 199
-12 185 6 353 28 392 53 12 7 68 69 124 136 131 158 201 230 269 280 157 116
171 147 167 378 l-2 155 32 68 c39 82 114 163 202 219 56 35 162 88 176 88 3
0 19 -28 36 -62 89 -177 181 -265 397 -379 304 -159 275 -139 290 -195 7 -27
14 -92 15 -144 1 -116 -19 -186 -66 -226 -43 -36 -152 -86 -262 -119 -143 -43
-178 -65 -204 -124 -42 -100 -19 -182 66 -229 69 -38 197 -65 278 -59 210 16
481 189 526 335 6 20 15 136 19 257 5 121 15 256 23 300 24 132 30 217 17 266
-10 37 -31 63 -137 163 -68 66 -135 138 -149 162 -34 58 -39 117 -20 276 9 75
16 156 16 180 l1 43 71 34 c122 60 220 166 255 279 18 61 18 201 -2 275 -42
161 -125 269 -451 592 -290 287 -343 352 -384 476 -57 166 24 347 144 325 77
-15 126 -92 176 -278 45 -164 98 -235 199 -265 68 -19 160 -13 256 18 l70 22
-68 13 c-124 24 -156 55 -246 245 -70 148 -120 214 -187 251 -52 28 -140 48
-208 48 -81 -1 -156 -55 -186 -134 -6 -17 -14 -64 -17 -107 -14 -189 78 -335
408 -645 169 -158 235 -228 318 -338 182 -240 193 -476 28 -637 -51 -51 -160
-120 -171 -109 -2 3 -8 28 -11 56 l-7 51 56 27 c118 58 161 183 121 354 -35
150 -104 243 -375 512 -235 233 -283 289 -344 401 -126 231 -89 515 79 601
106 55 293 20 401 -74 47 -41 71 -81 123 -200 58 -133 93 -182 145 -207 42
-21 96 -28 96 -13 0 4 -16 18 -35 31 -42 29 -65 64 -99 154 -49 131 -172 278
-276 329 -169 84 -354 74 -453 -26 -117 -116 -140 -353 -55 -563 47 -117 114
-200 358 -444 147 -148 255 -265 289 -314 149 -215 145 -434 -9 -499 l-36 -14
-27 52 c-56 108 -149 191 -354 316 -336 207 -417 288 -543 540 -111 222 -163
297 -315 445 -158 155 -190 204 -189 290 1 82 34 152 118 245 102 114 144 213
173 410 l8 55 59 21 c87 31 106 51 106 115 0 49 -3 55 -43 93 -39 38 -124 76
-170 76 -27 0 -27 15 -1 54 19 27 45 46 98 70 76 35 108 65 126 122 26 78 -12
140 -125 202 -38 22 -96 55 -129 75 -32 20 -63 38 -70 40 -7 3 -2 14 12 29 33
36 29 80 -9 112 -32 27 -50 31 -86 16z m-5165 -138 c60 -39 67 -119 20 -213
-32 -62 -34 -64 -75 -67 -52 -4 -53 3 -18 103 30 85 31 109 5 160 -11 22 -20
41 -20 43 0 8 66 -11 88 -26z m4840 -2 c-29 -40 -27 -103 6 -195 13 -38 21
-73 17 -78 -4 -4 -25 -4 -47 0 -35 8 -42 14 -71 72 -38 74 -42 122 -13 169 21
34 68 61 108 62 l23 0 -23 -30z m-5005 -39 c20 -20 22 -34 19 -162 l-2 -86
-55 -15 c-30 -8 -57 -13 -60 -10 -3 3 -5 21 -5 41 0 67 -50 207 -80 226 -5 3
-10 10 -10 15 0 27 165 20 193 -9z m5297 20 c0 -5 -7 -14 -16 -22 -30 -25 -64
-109 -76 -186 -6 -43 -13 -79 -14 -81 -1 -2 -27 2 -58 10 l-56 13 0 116 c0
120 5 135 50 152 25 9 170 8 170 -2z m-5542 -184 c7 -15 27 -52 47 -82 l35
-55 -56 -25 c-31 -14 -58 -25 -60 -25 -1 0 -19 24 -38 53 -19 28 -48 65 -65
81 -57 55 -36 105 84 195 l30 23 6 -69 c3 -37 11 -80 17 -96z m5685 108 c45
-35 77 -79 77 -104 0 -6 -20 -33 -45 -61 -25 -28 -57 -69 -70 -90 l-25 -39
-47 21 c-27 11 -52 24 -57 28 -4 5 8 35 28 67 42 69 52 98 61 176 5 42 10 56
18 49 7 -4 34 -26 60 -47z m-5918 -196 c11 -12 50 -42 88 -66 37 -25 67 -49
67 -53 0 -13 -50 -50 -67 -50 -25 0 -121 52 -148 80 -27 28 -41 83 -31 123 3
13 18 37 33 53 l28 29 5 -47 c3 -26 15 -57 25 -69z m6132 58 c22 -44 12 -111
-22 -147 -15 -15 -54 -40 -86 -55 l-59 -26 -35 21 c-19 12 -35 25 -35 30 0 4
31 29 69 54 82 53 109 86 117 138 6 32 9 36 21 26 8 -6 21 -25 30 -41z m-875
-161 l46 -43 -44 -21 c-47 -23 -70 -21 -79 8 -6 20 13 100 24 100 3 -1 27 -20
53 -44z m-4188 -97 c-25 -28 -43 -24 -86 23 -21 23 -38 42 -38 44 0 1 17 5 38
9 21 3 52 14 68 24 l29 18 3 -50 c2 -36 -2 -54 -14 -68z m-168 53 c48 -25 87
-68 132 -149 18 -32 74 -103 124 -158 107 -117 174 -215 217 -319 38 -90 78
-238 87 -317 6 -56 5 -59 -15 -59 l-21 0 -2 -712 -3 -711 -45 59 c-74 99 -231
254 -307 304 -40 27 -140 74 -230 110 -87 35 -193 81 -236 103 -138 70 -218
163 -250 286 l-13 53 -12 -54 c-23 -107 -34 -203 -30 -276 l4 -75 -37 43 c-54
63 -116 175 -153 281 l-33 92 -32 -96 c-18 -54 -36 -97 -40 -97 -5 0 -19 35
-31 78 -30 98 -33 243 -6 312 31 81 31 170 1 319 -22 109 -27 151 -23 225 7
127 40 201 160 366 10 14 21 39 24 57 5 27 2 33 -21 45 l-27 14 54 40 c274
206 616 312 764 236z m4705 -51 c87 -22 195 -74 254 -121 39 -31 39 -31 47 -9
8 20 13 21 69 15 122 -12 201 -55 214 -117 9 -42 1 -46 -35 -15 -35 29 -86 34
-152 16 -33 -9 -37 -15 -43 -53 -4 -24 -24 -66 -46 -97 l-39 -56 0 -104 c-1
-160 -33 -213 -178 -292 -52 -29 -100 -67 -152 -120 -88 -91 -132 -114 -190
-98 -46 12 -129 76 -150 114 -13 25 -12 31 5 64 l20 37 85 5 c94 6 86 -1 110
95 13 54 41 97 84 130 l35 27 35 -22 c50 -30 97 -24 111 14 8 24 6 31 -15 48
-21 17 -36 19 -101 16 -64 -2 -82 -7 -117 -32 -58 -40 -72 -66 -82 -152 -4
-41 -10 -78 -14 -81 -12 -13 -110 -2 -151 16 -66 29 -68 56 -14 133 49 70 68
117 69 171 1 112 -116 224 -164 156 -20 -30 -11 -46 40 -68 45 -20 84 -69 84
-106 -1 -37 -39 -104 -84 -149 -25 -24 -46 -51 -46 -60 0 -9 14 -43 32 -76 27
-53 30 -65 22 -97 -8 -32 -14 -39 -48 -46 -50 -12 -111 6 -132 38 -19 30 -15
75 16 160 16 43 20 72 16 105 -3 25 -8 88 -12 140 -6 85 -4 101 14 135 24 47
49 72 116 114 48 30 49 31 20 31 -16 0 -47 -12 -67 -26 -21 -14 -40 -24 -42
-22 -2 2 9 27 25 56 33 56 178 181 233 201 46 15 228 5 318 -18z m-5511 -281
c0 -14 -35 -79 -57 -107 -18 -22 -19 -22 -71 -7 -61 18 -108 13 -145 -16 -34
-27 -40 -25 -32 8 15 60 65 101 152 121 54 13 153 13 153 1z m1907 -376 c70
-52 97 -152 55 -204 l-18 -23 -24 39 -24 39 -6 -44 c-7 -43 -29 -71 -57 -71
-21 0 -53 38 -60 70 -8 40 -19 38 -27 -5 -9 -49 -45 -71 -83 -53 -23 11 -29
21 -33 58 l-6 45 -23 -38 c-20 -32 -26 -36 -37 -25 -8 7 -16 34 -20 58 -8 65
26 127 86 158 40 20 57 23 147 20 84 -2 106 -7 130 -24z m2339 0 c53 -39 69
-71 69 -134 0 -41 -5 -64 -16 -75 -15 -15 -18 -13 -40 22 -22 36 -23 37 -26
13 -7 -54 -14 -70 -33 -80 -33 -18 -60 -2 -82 48 l-20 45 -14 -39 c-30 -87
-97 -83 -119 7 l-11 43 -18 -38 c-17 -36 -19 -37 -35 -22 -26 27 -22 123 8
165 40 56 89 72 208 69 84 -3 107 -7 129 -24z m1468 -186 c-5 -7 -27 -36 -49
-64 -51 -63 -69 -123 -63 -212 8 -111 63 -199 250 -398 94 -100 123 -144 223
-344 69 -137 87 -162 149 -224 124 -121 257 -225 406 -318 407 -255 454 -347
404 -793 -22 -193 -16 -245 37 -324 21 -32 90 -106 153 -165 127 -118 132
-129 120 -236 l-7 -60 -37 39 c-37 38 -76 59 -87 47 -4 -3 10 -54 30 -114 53
-159 60 -208 55 -399 -5 -183 -12 -213 -66 -274 -17 -19 -54 -45 -84 -58 -29
-13 -95 -43 -145 -67 -147 -68 -181 -69 -254 -8 -40 33 -47 36 -90 30 -57 -8
-92 14 -91 59 0 41 29 60 146 96 302 92 333 118 356 299 21 175 7 279 -53 379
-42 70 -105 126 -208 183 -46 25 -111 61 -144 80 -84 46 -182 148 -227 234
-21 39 -49 113 -63 165 -77 275 -140 412 -244 522 -38 41 -120 102 -127 95 -2
-3 10 -23 26 -45 47 -64 106 -190 134 -287 42 -143 39 -146 -56 -51 -102 101
-216 186 -373 277 -260 152 -324 192 -365 227 l-43 37 91 72 c213 170 321 348
328 542 l4 85 -15 -50 c-23 -82 -90 -205 -149 -276 -66 -81 -191 -176 -340
-259 -252 -142 -333 -201 -419 -305 -112 -136 -150 -223 -198 -457 -63 -303
-103 -361 -250 -362 -68 0 -113 18 -126 51 -3 8 4 45 15 82 12 37 35 128 51
204 l29 137 -989 0 -989 0 0 -32 c0 -29 7 -38 58 -70 31 -21 49 -38 40 -38
-12 0 -18 -10 -20 -37 l-3 -38 -97 -3 -98 -3 0 41 c0 35 -3 40 -22 40 -18 1
-9 9 35 37 51 32 57 40 57 69 l0 34 -405 0 -405 0 5 -22 c3 -13 12 -57 20 -98
8 -41 29 -121 46 -176 21 -68 29 -111 25 -129 -18 -72 -203 -72 -268 1 -35 40
-68 133 -98 279 -39 193 -54 244 -95 326 -68 134 -184 257 -333 354 -41 26
-89 61 -108 78 -71 62 -156 201 -205 336 l-23 65 -23 -51 c-70 -153 -82 -334
-29 -448 17 -37 47 -78 79 -109 50 -46 51 -49 32 -63 -51 -37 -199 -99 -394
-163 -233 -76 -324 -120 -407 -193 -47 -43 -54 -46 -54 -27 0 73 78 269 145
361 19 27 35 52 35 55 0 14 -94 -63 -145 -118 -66 -74 -143 -220 -180 -344
-14 -46 -37 -123 -51 -171 -31 -105 -62 -169 -116 -241 -50 -67 -123 -121
-268 -197 -255 -134 -339 -281 -310 -546 15 -142 24 -169 67 -214 47 -47 92
-67 244 -111 134 -38 174 -55 189 -83 29 -55 -7 -91 -88 -91 -47 0 -63 -4 -78
-21 -55 -61 -120 -64 -230 -11 -43 21 -112 51 -151 66 -82 31 -144 90 -164
155 -5 20 -13 106 -16 191 -6 175 5 257 57 404 29 81 36 116 25 116 -17 0 -66
-33 -88 -59 -13 -16 -28 -27 -31 -24 -3 4 -6 44 -6 91 l0 84 125 120 c68 66
139 143 157 171 32 50 33 55 33 157 0 58 -6 169 -14 247 -25 240 4 357 116
474 38 40 126 107 253 191 107 72 227 157 265 190 164 138 193 166 240 222 61
73 76 87 143 138 62 46 105 109 123 179 7 27 16 49 19 49 3 0 14 -21 23 -47
23 -63 104 -170 158 -209 47 -33 129 -78 134 -72 2 2 -3 32 -11 68 -7 36 -14
89 -14 118 l0 54 63 -57 c82 -75 166 -123 314 -179 67 -26 150 -65 185 -88
134 -86 332 -318 497 -582 l81 -129 2 879 3 879 1515 0 1515 0 5 -848 5 -848
36 38 c86 90 390 459 443 536 31 47 97 166 146 265 67 134 103 195 142 238
l53 58 -44 -25 c-51 -28 -101 -87 -174 -207 -57 -93 -65 -92 -66 9 -2 120 36
270 113 448 20 46 35 85 33 87 -6 7 -126 -201 -151 -263 -52 -124 -80 -263
-92 -453 -5 -79 -10 -100 -29 -124 l-24 -30 -7 29 c-13 50 4 324 26 420 32
143 46 179 138 366 l87 177 50 14 50 14 -65 8 c-85 10 -130 24 -159 50 -22 19
-51 73 -51 94 0 5 34 8 75 7 l74 -2 41 -45 c49 -56 129 -98 184 -98 61 1 114
30 211 116 115 102 242 191 219 152z m-986 -623 c113 0 132 -2 129 -15 -3 -8
-17 -55 -31 -105 -28 -93 -50 -216 -61 -342 -5 -46 -11 -73 -19 -73 -6 0 -57
15 -111 33 l-100 34 -3 241 -2 242 32 -7 c18 -4 93 -7 166 -8z m-77 -580 l106
-36 12 -71 12 -70 -48 -52 c-100 -109 -193 -206 -198 -206 -3 0 -5 106 -5 235
0 129 3 235 7 235 5 0 56 -16 114 -35z m959 -783 c135 -74 279 -158 320 -186
96 -65 287 -253 272 -268 -7 -7 -33 10 -85 55 -159 138 -343 246 -690 403
-227 103 -337 161 -337 177 0 4 21 21 46 37 l46 29 91 -56 c51 -31 202 -117
337 -191z m-4830 42 c22 -9 37 -20 34 -25 -8 -14 -195 -106 -283 -140 -42 -16
-182 -59 -311 -95 -254 -70 -415 -137 -497 -208 -38 -34 -73 -47 -73 -28 0 19
117 147 171 187 78 57 178 95 374 139 180 41 366 101 470 151 39 18 71 34 72
34 2 1 21 -6 43 -15z m-574 -454 c51 -25 88 -73 110 -147 18 -57 20 -209 5
-303 -23 -137 -7 -275 45 -390 33 -74 118 -157 254 -249 288 -195 367 -259
422 -338 33 -48 36 -46 -62 -44 -73 2 -332 31 -347 39 -6 4 -81 81 -165 172
-95 102 -190 192 -248 237 -65 49 -102 86 -118 115 -22 40 -22 49 -16 193 7
179 -8 271 -61 383 -43 91 -135 186 -220 230 l-60 30 55 24 c179 79 309 95
406 48z m5666 19 c60 -13 238 -78 238 -88 -1 -3 -24 -17 -51 -30 -75 -35 -170
-128 -213 -210 -59 -112 -70 -179 -68 -388 2 -212 1 -214 -108 -297 -36 -28
-153 -138 -260 -247 l-195 -197 -105 -11 c-179 -20 -310 -25 -310 -13 0 22 84
115 153 170 40 31 134 99 209 150 257 173 316 233 359 363 20 63 24 93 23 199
0 69 -4 179 -8 246 -8 109 -7 128 12 190 43 143 154 199 324 163z m-3384 -116
l-3 -48 -140 0 -140 0 -3 48 -3 47 146 0 146 0 -3 -47z m-15 -70 c3 -5 8 -90
12 -190 l8 -183 -148 0 -147 0 7 173 c4 94 9 180 11 190 5 15 20 17 129 17 68
0 126 -3 128 -7z m-1013 -503 l0 -270 148 0 149 0 13 25 c17 32 64 61 110 70
46 8 112 -17 144 -56 l24 -28 5 28 c3 15 9 62 13 104 l7 77 268 0 c305 0 273
12 284 -105 4 -38 9 -80 12 -93 l5 -22 316 2 317 3 20 67 20 68 271 0 270 0
18 -70 18 -70 254 0 254 0 0 270 0 270 26 0 25 0 -3 -499 -3 -498 -35 -69
c-25 -49 -49 -79 -84 -106 -97 -73 -23 -69 -1421 -66 l-1250 3 -67 33 c-77 38
-118 82 -151 162 -21 54 -22 65 -25 548 l-3 492 25 0 26 0 0 -270z m1074 69
c3 -17 6 -47 6 -65 l0 -34 -195 0 -195 0 0 28 c0 15 3 44 6 65 l7 37 182 0
183 0 6 -31z m1306 -29 l0 -60 -250 0 -250 0 0 60 0 60 250 0 250 0 0 -60z
m38 -112 l-3 -33 -287 -3 -288 -2 0 35 0 35 291 0 290 0 -3 -32z"/>
<path d="M3327 6260 c-19 -16 -40 -43 -47 -59 l-12 -30 -141 6 c-137 5 -143 4
-177 -18 -48 -33 -84 -111 -115 -254 -49 -219 -43 -364 16 -439 13 -16 69 -50
134 -81 80 -39 131 -71 173 -110 33 -30 79 -64 103 -75 87 -39 147 -22 248 72
l66 61 82 2 c90 1 93 0 93 -62 0 -62 -27 -103 -87 -130 -47 -22 -65 -25 -143
-21 -100 3 -107 -10 -17 -37 131 -39 248 7 295 115 16 36 21 117 25 390 2 80
9 171 16 203 18 81 2 152 -49 216 -60 76 -162 151 -205 151 -27 0 -15 -14 48
-55 34 -22 75 -60 92 -83 28 -40 30 -50 29 -125 0 -45 -4 -122 -8 -172 -8 -84
-7 -94 18 -152 53 -126 19 -189 -102 -187 -41 0 -58 5 -68 19 -23 31 -16 84
16 142 17 29 30 61 30 71 0 10 -22 40 -49 66 -55 54 -96 135 -87 171 9 37 55
85 97 101 45 19 55 39 34 70 -49 75 -175 -43 -175 -164 0 -52 16 -96 59 -161
71 -106 67 -96 47 -126 -21 -31 -62 -50 -131 -59 -71 -10 -83 2 -91 92 -8 87
-29 124 -95 165 -88 54 -230 44 -237 -16 -2 -16 2 -35 9 -43 17 -20 68 -17
108 7 l33 20 37 -25 c49 -35 77 -79 96 -156 9 -36 21 -69 26 -74 5 -6 42 -9
82 -8 83 3 99 -5 122 -61 l15 -37 -46 -50 c-85 -91 -174 -114 -249 -63 -22 15
-69 50 -105 79 -36 28 -104 75 -152 103 -73 43 -89 57 -108 97 -21 43 -22 55
-17 168 7 131 42 307 71 351 30 46 76 58 224 57 l133 -1 10 27 c38 100 80 132
150 114 47 -12 49 -8 9 13 -47 24 -94 19 -133 -15z"/>
<path d="M3332 4839 c8 -68 50 -152 105 -205 45 -45 155 -105 215 -120 l27 -6
-35 69 c-20 39 -34 80 -32 93 3 22 7 20 78 -37 41 -32 117 -104 168 -158 l92
-99 0 72 c0 142 -35 234 -118 316 l-50 49 39 -107 c21 -58 39 -111 39 -117 0
-6 -27 16 -59 49 -32 33 -94 84 -137 112 -44 29 -89 62 -102 74 l-23 21 3 -98
c2 -53 0 -97 -3 -97 -10 0 -83 59 -107 88 -13 15 -42 54 -64 87 l-40 60 4 -46z"/>
<path d="M7928 6244 c-38 -20 -35 -23 10 -11 56 15 91 -5 124 -72 15 -30 30
-56 32 -58 2 -2 31 3 64 11 144 38 243 8 301 -89 11 -18 12 -16 7 12 -17 102
-121 143 -291 113 -45 -8 -51 -6 -65 13 -8 12 -31 39 -51 60 -41 41 -82 48
-131 21z"/>
<path d="M4221 4663 c0 -459 3 -584 12 -569 136 211 225 320 359 436 220 190
476 317 771 382 89 20 131 23 332 23 217 -1 237 -2 350 -29 447 -105 803 -352
1054 -735 l61 -93 0 586 0 586 -1470 0 -1470 0 1 -587z m1484 497 c6 -27 10
-30 46 -30 46 0 49 -11 12 -38 -25 -18 -26 -22 -16 -56 13 -42 11 -43 -28 -15
l-29 20 -27 -20 c-32 -26 -39 -21 -25 19 10 28 8 32 -18 52 -40 29 -38 38 9
38 36 0 40 3 46 30 4 17 10 30 15 30 5 0 11 -13 15 -30z"/>
<path d="M5407 4840 c-421 -76 -805 -329 -1043 -686 -30 -45 -54 -84 -54 -88
0 -3 11 -6 24 -6 20 0 37 18 88 93 36 53 112 141 178 207 619 622 1607 608
2214 -31 52 -54 120 -137 152 -184 46 -67 63 -85 82 -85 31 0 28 9 -48 119
-223 326 -569 557 -975 652 -136 31 -468 36 -618 9z"/>
<path d="M5560 4734 c-365 -43 -656 -180 -901 -424 -90 -90 -199 -223 -199
-244 0 -3 11 -6 25 -6 18 0 35 14 66 56 94 127 252 273 394 362 74 46 229 117
321 146 256 83 554 86 820 10 112 -32 292 -117 402 -191 102 -67 263 -219 333
-314 43 -58 55 -69 81 -69 l29 0 -42 61 c-62 88 -200 231 -294 304 -255 199
-539 301 -865 310 -74 2 -151 1 -170 -1z"/>
<path d="M5480 4595 c-187 -30 -371 -102 -536 -211 -86 -57 -297 -254 -323
-302 l-12 -22 1081 0 c635 0 1080 4 1080 9 0 19 -197 215 -279 277 -105 79
-295 175 -416 209 -187 54 -411 69 -595 40z m164 -100 c22 -14 24 -14 31 2 6
17 7 17 20 0 11 -15 17 -16 34 -8 27 15 31 14 31 -10 0 -18 5 -20 26 -16 23 4
25 2 20 -19 -5 -19 -2 -24 14 -24 24 0 26 -13 4 -31 -14 -11 -13 -15 8 -31
l23 -18 -22 -6 -23 -6 21 -29 20 -29 -29 0 c-26 0 -29 -3 -24 -22 4 -18 2 -20
-16 -16 -20 5 -22 2 -22 -30 l-1 -37 -25 29 c-24 28 -25 28 -31 7 -6 -25 -18
-27 -27 -5 -6 15 -9 14 -30 -6 l-24 -22 -4 28 c-3 25 -7 29 -31 26 -25 -3 -27
-1 -18 17 16 29 14 31 -21 31 l-31 0 21 23 c27 29 27 33 0 41 l-23 7 23 11
c26 13 27 21 7 38 -23 19 -18 30 15 30 27 0 30 2 20 19 -15 29 -13 32 16 21
25 -10 26 -9 22 20 -5 35 -5 35 26 15z"/>
<path d="M5670 3905 l0 -65 -70 0 -70 0 0 -40 0 -40 70 0 70 0 0 -175 0 -175
35 0 35 0 0 175 0 175 65 0 65 0 0 40 0 40 -65 0 -65 0 0 65 0 65 -35 0 -35 0
0 -65z"/>
<path d="M4378 2048 l-77 -41 -41 20 -40 20 0 -44 c0 -38 3 -45 26 -53 47 -18
89 -11 168 31 88 46 98 46 177 -3 80 -49 127 -49 221 1 43 23 83 41 90 41 7 0
49 -18 92 -40 43 -22 93 -40 111 -40 17 0 67 18 110 40 43 22 83 40 89 40 6 0
47 -18 90 -40 43 -22 93 -40 111 -40 18 0 68 18 111 40 43 22 85 40 92 40 7 0
47 -18 90 -41 94 -50 141 -50 221 -1 78 49 89 49 176 3 99 -53 128 -53 231 -1
89 46 98 46 175 -2 80 -49 126 -49 224 1 44 23 85 41 90 41 6 0 46 -18 90 -41
57 -29 90 -39 115 -37 34 3 35 5 38 45 3 42 3 43 -22 34 -20 -8 -39 -3 -102
30 -101 51 -139 51 -231 3 -37 -20 -80 -36 -94 -36 -15 0 -50 15 -79 33 -37
22 -69 34 -105 37 -46 4 -61 -1 -129 -36 -86 -46 -93 -45 -186 7 -71 39 -129
41 -191 6 -108 -62 -102 -61 -193 -16 -101 51 -141 53 -221 10 -98 -52 -95
-52 -181 -8 -101 51 -139 51 -231 3 -37 -20 -80 -36 -94 -36 -15 0 -50 15 -79
33 -83 51 -131 51 -234 0 -93 -47 -87 -48 -196 14 -67 37 -117 33 -212 -17z"/>
<path d="M4455 1933 c-11 -3 -48 -21 -82 -40 -49 -27 -69 -33 -93 -28 -16 4
-32 11 -35 16 -14 22 -25 6 -25 -35 0 -37 4 -45 23 -50 53 -14 101 -6 163 29
35 20 76 35 94 35 18 0 60 -16 96 -36 58 -32 71 -36 118 -32 38 3 68 14 103
36 64 41 99 41 177 -3 46 -26 75 -35 108 -35 32 0 64 10 111 35 36 19 78 35
92 35 14 0 56 -16 92 -35 47 -25 79 -35 111 -35 33 0 62 9 108 35 78 44 113
44 177 3 35 -22 65 -33 103 -36 47 -4 61 0 119 32 36 20 79 36 95 36 16 0 59
-16 95 -36 58 -32 72 -36 118 -32 35 3 68 15 103 36 66 41 100 41 178 -3 46
-26 75 -35 108 -35 32 0 64 10 111 35 36 19 78 35 92 35 15 0 55 -16 89 -35
47 -26 75 -35 109 -35 l47 0 0 41 c0 39 -1 40 -27 35 -21 -5 -49 4 -107 34
-43 22 -91 40 -106 40 -35 0 -86 -18 -132 -46 -63 -40 -77 -39 -164 6 -71 38
-84 42 -129 36 -29 -3 -69 -18 -98 -36 -75 -47 -85 -47 -172 -1 -100 53 -130
53 -230 0 -87 -46 -98 -46 -174 2 -29 17 -70 32 -98 35 -43 6 -57 2 -126 -35
-43 -23 -84 -41 -92 -41 -8 0 -48 18 -90 40 -46 24 -90 40 -110 40 -20 0 -64
-16 -110 -40 -42 -22 -82 -40 -90 -40 -8 0 -49 18 -92 41 -69 37 -83 41 -126
35 -28 -3 -69 -18 -98 -35 -76 -47 -90 -48 -163 -7 -63 35 -130 51 -171 39z"/>
<path d="M4385 1745 c-66 -38 -92 -42 -134 -20 l-29 14 10 -41 c12 -57 13 -58
69 -58 39 0 65 8 113 35 35 19 73 35 86 35 13 0 51 -16 86 -35 87 -49 143 -48
232 1 75 42 104 42 173 -2 31 -19 61 -29 101 -32 51 -4 64 -1 122 32 35 20 77
36 92 36 15 0 50 -14 78 -32 39 -24 65 -33 114 -36 57 -4 68 -2 115 28 77 48
103 49 179 6 89 -49 145 -50 232 -1 35 19 73 35 85 35 13 0 51 -16 85 -35 50
-28 74 -35 116 -35 42 0 66 7 116 35 34 19 72 35 85 35 12 0 50 -16 85 -35 87
-49 143 -48 232 1 75 42 104 42 173 -2 26 -16 63 -29 91 -32 45 -4 47 -3 53
24 4 16 8 34 10 41 3 9 -5 11 -25 7 -22 -5 -45 3 -94 30 -53 30 -74 36 -121
36 -47 0 -68 -6 -121 -36 -74 -41 -98 -41 -166 3 -32 20 -60 28 -105 31 -57 4
-68 1 -127 -32 -35 -20 -74 -36 -86 -36 -12 0 -50 16 -84 35 -50 28 -74 35
-116 35 -42 0 -67 -7 -117 -35 -35 -19 -73 -35 -84 -35 -12 0 -50 16 -85 36
-59 33 -70 36 -128 32 -48 -3 -74 -11 -105 -31 -66 -44 -89 -44 -166 -3 -93
49 -147 49 -238 1 -36 -19 -76 -35 -88 -35 -12 0 -45 14 -73 32 -39 24 -65 33
-113 36 -57 4 -68 1 -127 -32 -35 -20 -74 -36 -86 -36 -12 0 -50 16 -84 35
-87 48 -147 48 -231 0z"/>
<path d="M4405 1604 c-27 -15 -61 -33 -74 -40 l-24 -13 34 -20 c42 -26 38 -26
95 4 26 14 54 25 63 25 9 0 52 -18 96 -41 96 -49 130 -48 227 6 36 19 72 35
81 35 9 0 50 -18 92 -40 45 -24 90 -40 110 -40 20 0 64 16 109 40 41 22 82 40
91 40 9 0 50 -18 91 -40 44 -23 90 -40 108 -40 19 0 68 18 112 40 43 22 85 40
92 40 7 0 47 -18 88 -40 100 -53 146 -51 238 9 54 35 98 33 166 -9 76 -48 143
-49 218 -2 79 49 95 49 186 2 45 -22 93 -40 112 -40 18 0 64 17 108 40 41 22
81 40 87 40 7 0 33 -10 57 -22 44 -21 45 -21 78 -3 19 10 34 21 34 24 0 4 -26
21 -59 39 -81 44 -133 44 -218 -3 -35 -19 -75 -35 -88 -35 -14 0 -55 16 -92
36 -60 32 -75 35 -124 32 -42 -3 -69 -12 -106 -36 -63 -41 -99 -41 -164 0 -36
22 -68 33 -106 36 -47 4 -62 0 -123 -32 -38 -20 -81 -36 -94 -36 -14 0 -54 16
-89 35 -48 26 -76 35 -112 35 -36 0 -63 -8 -111 -35 -34 -19 -74 -35 -89 -35
-15 0 -55 16 -89 35 -48 27 -75 35 -111 35 -36 0 -64 -9 -112 -35 -35 -19 -75
-35 -88 -35 -14 0 -54 16 -91 35 -47 25 -78 35 -112 35 -33 0 -62 -9 -109 -35
-79 -43 -108 -44 -175 -3 -74 45 -145 50 -213 12z"/>
<path d="M5370 6729 c-211 -23 -458 -76 -650 -139 -134 -44 -300 -111 -300
-122 0 -5 6 -24 14 -43 l15 -35 71 31 c494 210 1078 283 1615 203 257 -38 580
-132 790 -229 6 -3 18 13 27 36 l17 41 -65 29 c-101 46 -376 134 -509 164
-246 55 -360 67 -660 70 -154 2 -318 -1 -365 -6z"/>
<path d="M5490 6603 c-200 -14 -449 -59 -635 -113 -117 -34 -315 -106 -328
-119 -4 -4 4 -32 17 -62 16 -34 25 -46 25 -33 1 33 38 72 80 85 34 10 44 9 78
-11 l39 -22 72 22 c58 18 72 26 72 42 0 11 13 33 29 49 38 38 99 40 145 5 30
-22 34 -23 94 -12 56 10 65 15 78 43 15 31 65 63 99 63 24 0 72 -27 88 -50 13
-19 21 -20 80 -14 54 5 68 11 73 26 8 27 63 58 103 58 27 0 42 -9 71 -39 32
-34 44 -40 98 -46 55 -6 61 -5 71 14 13 24 61 51 91 51 34 0 76 -27 97 -62 18
-30 27 -35 84 -44 61 -11 66 -10 92 12 56 47 154 17 171 -50 5 -19 19 -29 71
-46 l65 -22 43 21 c24 12 49 21 56 21 32 0 81 -34 96 -67 l17 -35 19 42 c10
23 19 48 19 54 0 12 -159 74 -305 119 -313 97 -734 144 -1065 120z"/>
<path d="M5435 6424 c-101 -11 -260 -37 -365 -60 -121 -27 -437 -127 -465
-148 -15 -11 -12 -24 36 -138 l52 -126 51 20 c250 100 511 159 794 178 339 24
741 -37 1053 -159 100 -39 100 -39 109 -18 4 12 29 70 54 130 l45 107 -37 16
c-162 69 -444 145 -662 180 -101 16 -564 28 -665 18z"/>
<path d="M5520 6104 c-279 -25 -648 -113 -784 -186 l-23 -13 50 -118 c40 -94
54 -116 66 -111 9 4 79 29 156 55 473 163 1005 155 1480 -20 58 -21 108 -35
110 -31 3 5 25 57 50 116 42 99 44 110 29 121 -9 6 -84 34 -168 61 -262 87
-462 121 -736 126 -102 2 -205 2 -230 0z"/>
<path d="M11202 1918 l3 -513 109 -3 c81 -2 112 1 118 10 4 7 8 77 8 156 l0
142 133 0 c197 0 291 30 367 117 53 60 73 117 78 219 7 152 -36 250 -141 321
-78 52 -151 63 -432 63 l-245 0 2 -512z m510 275 c89 -51 88 -195 -1 -247 -28
-16 -59 -21 -153 -24 l-118 -4 0 152 0 153 120 -6 c92 -4 128 -10 152 -24z"/>
<path d="M12915 2418 c-3 -7 -4 -238 -3 -513 l3 -500 115 0 115 0 3 158 3 157
47 0 c65 0 144 -25 182 -57 39 -32 68 -88 96 -183 l22 -75 121 -3 c143 -3 142
-4 116 96 -22 88 -78 193 -125 236 l-38 34 38 27 c42 29 80 78 107 140 12 29
17 67 18 140 0 87 -3 107 -26 155 -14 30 -38 69 -52 86 -33 39 -127 89 -195
103 -77 16 -541 15 -547 -1z m513 -222 c92 -48 93 -190 2 -238 -28 -15 -58
-18 -157 -18 l-123 0 0 133 c0 74 3 137 8 142 13 14 236 -2 270 -19z"/>
<path d="M14672 1918 l3 -513 363 -3 362 -2 0 110 0 110 -247 2 -248 3 0 90 0
90 195 5 195 5 0 100 0 100 -195 5 -195 5 0 95 0 95 248 3 247 2 0 105 0 105
-365 0 -365 0 2 -512z"/>
<path d="M16320 1915 l0 -516 113 3 112 3 5 185 5 185 213 3 212 2 0 105 0
105 -212 2 -213 3 -3 107 -3 108 243 2 243 3 3 108 3 107 -361 0 -360 0 0
-515z"/>
<path d="M17935 1936 c-4 -271 -4 -503 0 -515 6 -21 7 -21 371 -21 l364 0 0
110 0 110 -250 0 -250 0 0 95 0 95 195 0 195 0 0 105 0 105 -192 2 -193 3 0
95 0 95 237 0 c168 0 240 3 249 12 8 8 9 38 4 107 l-7 96 -358 0 -357 0 -8
-494z"/>
<path d="M19585 2418 c-3 -7 -4 -238 -3 -513 l3 -500 115 0 115 0 0 510 0 510
-113 3 c-84 2 -114 -1 -117 -10z"/>
<path d="M20694 2417 c-2 -7 -3 -56 -2 -108 l3 -94 142 -3 143 -3 2 -402 3
-402 115 0 115 0 3 402 2 402 143 3 142 3 0 105 0 105 -403 3 c-328 2 -403 0
-408 -11z"/>
<path d="M22377 2423 c-11 -11 -8 -633 4 -703 30 -188 147 -301 343 -332 206
-32 400 55 470 211 40 90 47 169 44 511 l-3 315 -117 3 -118 3 0 -324 c0 -349
-6 -401 -52 -445 -72 -67 -212 -70 -280 -5 -52 50 -58 93 -58 450 l0 323 -113
0 c-63 0 -117 -3 -120 -7z"/>
<path d="M24182 1918 l3 -513 109 -3 c81 -2 112 1 118 10 4 7 8 79 8 161 l0
147 43 0 c143 -1 223 -62 268 -207 39 -125 22 -113 159 -113 88 0 122 3 125
13 9 21 -33 165 -62 220 -16 28 -46 69 -68 92 l-40 40 60 60 c77 77 100 135
99 255 -1 180 -87 290 -261 335 -43 11 -118 15 -310 15 l-253 0 2 -512z m514
276 c44 -21 64 -59 64 -122 0 -35 -6 -57 -22 -77 -34 -44 -75 -55 -203 -55
l-115 0 0 135 0 135 121 0 c91 0 129 -4 155 -16z"/>
<path d="M26242 2413 c-34 -63 -391 -998 -384 -1005 5 -5 60 -7 122 -6 l113 3
31 87 31 88 222 0 221 0 18 -47 c9 -27 25 -67 35 -90 l18 -43 115 0 c63 0 117
3 119 8 3 4 -84 234 -193 512 l-198 505 -130 3 c-117 2 -132 1 -140 -15z m206
-423 c33 -91 64 -173 67 -182 7 -17 -4 -18 -134 -18 -78 0 -141 3 -141 8 0 20
135 371 141 364 4 -4 34 -81 67 -172z"/>
</g>
</svg>
