<svg width="27" height="27" viewBox="0 0 27 27" fill="none" xmlns="http://www.w3.org/2000/svg">
<g id="ph:magnifying-glass-bold">
<path id="Vector" d="M22.4323 23.6415L17.4236 18.6307C18.9254 16.6737 19.6265 14.2187 19.3848 11.7637C19.1431 9.30879 17.9766 7.03771 16.122 5.41119C14.2674 3.78467 11.8635 2.92451 9.39798 3.0052C6.93249 3.08589 4.58999 4.10139 2.84569 5.84569C1.10139 7.58999 0.085894 9.93249 0.00520401 12.398C-0.075486 14.8635 0.784671 17.2674 2.41119 19.122C4.03771 20.9766 6.30879 22.1431 8.76373 22.3848C11.2187 22.6265 13.6736 21.9254 15.6307 20.4236L20.6436 25.4376C20.7613 25.5553 20.9011 25.6487 21.0549 25.7124C21.2087 25.7761 21.3736 25.8089 21.5401 25.8089C21.7066 25.8089 21.8714 25.7761 22.0252 25.7124C22.1791 25.6487 22.3188 25.5553 22.4366 25.4376C22.5543 25.3199 22.6477 25.1801 22.7114 25.0263C22.7751 24.8725 22.8079 24.7076 22.8079 24.5411C22.8079 24.3746 22.7751 24.2098 22.7114 24.0559C22.6477 23.9021 22.5543 23.7624 22.4366 23.6446L22.4323 23.6415ZM2.55253 12.7244C2.55253 11.3059 2.97315 9.91933 3.76121 8.73992C4.54926 7.56051 5.66936 6.64128 6.97985 6.09846C8.29033 5.55563 9.73236 5.41361 11.1236 5.69033C12.5148 5.96706 13.7927 6.65012 14.7957 7.65312C15.7987 8.65613 16.4817 9.93403 16.7585 11.3252C17.0352 12.7164 16.8932 14.1585 16.3504 15.469C15.8075 16.7795 14.8883 17.8995 13.7089 18.6876C12.5295 19.4757 11.1429 19.8963 9.7244 19.8963C7.8229 19.8943 5.99984 19.1381 4.65528 17.7935C3.31072 16.449 2.55448 14.6259 2.55253 12.7244Z" fill="#212B4E"/>
</g>
</svg>
