<svg width="43" height="54" viewBox="0 0 43 54" fill="none" xmlns="http://www.w3.org/2000/svg">
<path fill-rule="evenodd" clip-rule="evenodd" d="M35.9987 36.5067C40.3011 32.6667 43 27.1412 43 21C43 9.40202 33.3741 0 21.5 0C9.62588 0 0 9.40202 0 21C0 27.3787 2.91168 33.0932 7.50769 36.9446L22.0322 54L35.9987 36.5067Z" fill="#B02304"/>
<path fill-rule="evenodd" clip-rule="evenodd" d="M13.1788 12.7693C12.7109 12.7693 12.2621 12.9577 11.9313 13.2931C11.6004 13.6285 11.4146 14.0834 11.4146 14.5577V32.4424C11.4146 32.9167 11.6004 33.3716 11.9313 33.707C12.2621 34.0424 12.7109 34.2308 13.1788 34.2308H16.1192V32.4424C16.1192 32.2843 16.1811 32.1326 16.2914 32.0208C16.4017 31.909 16.5513 31.8462 16.7072 31.8462H19.0595C19.2155 31.8462 19.3651 31.909 19.4754 32.0208C19.5857 32.1326 19.6476 32.2843 19.6476 32.4424V34.2308H23.7641V32.4424C23.7641 32.2843 23.8261 32.1326 23.9364 32.0208C24.0467 31.909 24.1963 31.8462 24.3522 31.8462H26.7045C26.8605 31.8462 27.0101 31.909 27.1204 32.0208C27.2306 32.1326 27.2926 32.2843 27.2926 32.4424V34.2308H30.8211C31.289 34.2308 31.7377 34.0424 32.0686 33.707C32.3994 33.3716 32.5853 32.9167 32.5853 32.4424V14.5577C32.5853 14.0834 32.3994 13.6285 32.0686 13.2931C31.7377 12.9577 31.289 12.7693 30.8211 12.7693H13.1788ZM27.8748 29.8402C28.1965 29.5093 28.5217 29.1754 28.8216 28.6777C28.8977 28.5529 28.9729 28.4322 29.0474 28.3158C29.3156 27.8955 29.5532 27.5229 29.5967 27.1414C29.6531 26.6543 29.6884 23.7332 29.5332 23.2908C29.3773 22.8491 28.4805 22.6011 28.1706 23.5907C28.0177 24.0789 27.9695 24.7067 27.926 25.2766C27.8807 25.8608 27.8407 26.3842 27.6966 26.6311C27.4126 27.1187 26.4981 28.3319 26.4981 28.3319L27.2873 26.8135C27.2873 26.8135 27.4073 26.6036 27.3444 26.2048C27.2808 25.8054 26.8051 25.2474 26.5816 25.6909C26.3581 26.1339 25.9671 26.5339 25.9671 26.5339L24.5863 28.2204C24.5863 28.2204 24.1364 28.8118 24.124 29.1361C24.1199 29.2446 24.0535 29.4854 23.977 29.7579C23.8918 30.0655 23.7947 30.4137 23.7641 30.6581V31.2501H27.1591V30.6581C27.3873 30.3403 27.6302 30.0917 27.8748 29.8402ZM16.2232 30.6581C15.9945 30.3403 15.751 30.0917 15.5058 29.8402C15.1824 29.5093 14.8566 29.1754 14.5555 28.6777C14.4802 28.5525 14.4032 28.4326 14.3291 28.3158C14.0603 27.8955 13.8221 27.5229 13.778 27.1414C13.721 26.6543 13.8968 23.7332 14.0527 23.2908C14.2091 22.8491 15.1088 22.6011 15.4199 23.5907C15.5728 24.0789 15.6216 24.7067 15.6658 25.2766C15.7104 25.8608 15.751 26.3842 15.8951 26.6311C16.1803 27.1187 17.0977 28.3319 17.0977 28.3319L16.3062 26.8135C16.3062 26.8135 16.1856 26.6036 16.2491 26.2048C16.3126 25.8054 16.7902 25.2474 17.0142 25.6909C17.2389 26.1339 17.6311 26.5339 17.6311 26.5339L19.016 28.2204C19.016 28.2204 19.4677 28.8118 19.48 29.1361C19.4888 29.3668 19.59 30.1972 19.6476 30.6581V31.2501H16.2232V30.6581ZM19.5188 15.7501C17.894 15.7501 16.7072 17.5302 16.7072 19.4504C16.7072 23.7367 21.9999 26.4808 21.9999 26.4808C21.9999 26.4808 27.2926 23.5597 27.2926 19.4504C27.2926 17.5308 26.1059 15.7501 24.481 15.7501C23.3531 15.7501 22.5168 16.5489 21.9999 17.6816C21.4836 16.5489 20.6468 15.7501 19.5188 15.7501Z" fill="white"/>
</svg>
